<?xml version="1.0" encoding="UTF-8" standalone="no"?>
<!-- Created with Inkscape (http://www.inkscape.org/) -->

<svg
   width="520.10791"
   height="325.46661"
   viewBox="0 0 520.10791 325.46661"
   version="1.1"
   id="svg1"
   xml:space="preserve"
   xmlns="http://www.w3.org/2000/svg"
   xmlns:svg="http://www.w3.org/2000/svg"><defs
     id="defs1" /><g
     id="layer1"
     transform="translate(-420.15457,-220.48299)"><path
       d="m 536.63436,459.37618 h -19.2 V 388.3363 h -78.0798 v 71.03988 h -19.2 V 307.05643 h 19.2 v 64.42656 h 78.0798 v -64.42656 h 19.2 z"
       style="-inkscape-font-specification:sans-serif;fill:#ffffff;fill-opacity:1"
       id="path1" /><path
       d="M 575.36079,391.5363 V 374.89632 H 664.9607 V 391.5363 Z"
       style="-inkscape-font-specification:sans-serif;fill:#ffffff;fill-opacity:1"
       id="path1-0" /><path
       d="m 844.2736,383.10964 c 0,15.78664 -2.7022,29.58217 -8.1067,41.3866 -5.2622,11.66221 -13.0844,20.76441 -23.4666,27.30662 -10.3822,6.54221 -23.2533,9.81332 -38.6133,9.81332 -15.7866,0 -28.9422,-3.27111 -39.4666,-9.81332 -10.3822,-6.54221 -18.1333,-15.71552 -23.2533,-27.51995 -5.12,-11.80443 -7.68,-25.59996 -7.68,-41.3866 0,-15.64442 2.56,-29.29773 7.68,-40.95994 5.12,-11.6622 12.8711,-20.76441 23.2533,-27.30662 10.5244,-6.54221 23.7511,-9.81332 39.68,-9.81332 15.2177,0 28.0177,3.27111 38.3999,9.81332 10.3822,6.39999 18.2044,15.5022 23.4666,27.30662 5.4045,11.66221 8.1067,25.38663 8.1067,41.17327 z m -120.3198,0 c 0,19.19997 4.0533,34.34662 12.1599,45.43993 8.1067,10.95109 20.7645,16.42664 37.9733,16.42664 17.3511,0 30.0089,-5.47555 37.9733,-16.42664 7.9644,-11.09331 11.9466,-26.23996 11.9466,-45.43993 0,-19.19997 -3.9822,-34.20439 -11.9466,-45.01326 -7.9644,-10.95109 -20.5511,-16.42664 -37.7599,-16.42664 -17.2089,0 -29.9378,5.47555 -38.1867,16.42664 -8.1066,10.80887 -12.1599,25.81329 -12.1599,45.01326 z"
       style="-inkscape-font-specification:sans-serif;fill:#ffffff;fill-opacity:1"
       id="path1-5" /></g><g
     id="layer2"
     transform="translate(-420.15457,-220.48299)"><g
       id="g2"
       transform="translate(5.3196444)"
       style="fill:#5bcefa;fill-opacity:1"><ellipse
         style="fill:#5bcefa;fill-opacity:1;stroke-width:0.945364"
         id="path2"
         cx="716.69019"
         cy="248.69926"
         rx="28.631227"
         ry="28.216284" /><ellipse
         style="fill:#5bcefa;fill-opacity:1;stroke-width:0.945364"
         id="path2-1"
         cx="820.63123"
         cy="249.21628"
         rx="28.631227"
         ry="28.216284" /></g><g
       id="g3"
       transform="translate(5.3786044)"
       style="fill:#f5a9b8;fill-opacity:1"><ellipse
         style="fill:#f5a9b8;fill-opacity:1;stroke-width:0.945364"
         id="path2-9"
         cx="716.63123"
         cy="517.21631"
         rx="28.631227"
         ry="28.216284" /><ellipse
         style="fill:#f5a9b8;fill-opacity:1;stroke-width:0.945364"
         id="path2-1-3"
         cx="820.57227"
         cy="517.73328"
         rx="28.631227"
         ry="28.216284" /></g><ellipse
       style="fill:#ffffff;fill-opacity:1;stroke-width:0.945364"
       id="path2-1-3-2"
       cx="911.63123"
       cy="383.21631"
       rx="28.631227"
       ry="28.216284" /></g></svg>
